<svg xmlns="http://www.w3.org/2000/svg" xmlns:xlink="http://www.w3.org/1999/xlink" width="800" zoomAndPan="magnify" viewBox="0 0 600 336.749987" height="449" preserveAspectRatio="xMidYMid meet" version="1.0"><defs><filter x="0%" y="0%" width="100%" height="100%" id="33b152f6f3"><feColorMatrix values="0 0 0 0 1 0 0 0 0 1 0 0 0 0 1 0 0 0 1 0" color-interpolation-filters="sRGB"/></filter><g/><mask id="1e8bbe5a76"><g filter="url(#33b152f6f3)"><rect x="-60" width="720" fill="#000000" y="-33.674999" height="404.099984" fill-opacity="0.6"/></g></mask><clipPath id="8b3aa81ed4"><rect x="0" width="470" y="0" height="289"/></clipPath></defs><g mask="url(#1e8bbe5a76)"><g transform="matrix(1, 0, 0, 1, 65, 23)"><g clip-path="url(#8b3aa81ed4)"><g fill="#414141" fill-opacity="1"><g transform="translate(2.08127, 232.107829)"><g><path d="M 53.171875 2.328125 C 38.222656 2.328125 27.101562 -1.632812 19.8125 -9.5625 C 12.53125 -17.5 8.632812 -30.101562 8.125 -47.375 L 37.703125 -51.828125 C 37.835938 -41.898438 39.03125 -34.773438 41.28125 -30.453125 C 43.539062 -26.140625 46.925781 -23.984375 51.4375 -23.984375 C 57.238281 -23.984375 60.140625 -27.785156 60.140625 -35.390625 C 60.140625 -41.441406 58.753906 -46.660156 55.984375 -51.046875 C 53.210938 -55.429688 48.859375 -60.132812 42.921875 -65.15625 L 29.390625 -76.953125 C 22.691406 -82.628906 17.503906 -88.65625 13.828125 -95.03125 C 10.148438 -101.414062 8.3125 -108.988281 8.3125 -117.75 C 8.3125 -130.90625 12.210938 -141.023438 20.015625 -148.109375 C 27.816406 -155.203125 38.546875 -158.75 52.203125 -158.75 C 67.023438 -158.75 77.113281 -154.429688 82.46875 -145.796875 C 87.820312 -137.160156 90.691406 -126.65625 91.078125 -114.28125 L 61.296875 -110.609375 C 61.035156 -118.722656 60.289062 -124.550781 59.0625 -128.09375 C 57.84375 -131.644531 55.171875 -133.421875 51.046875 -133.421875 C 48.078125 -133.421875 45.785156 -132.160156 44.171875 -129.640625 C 42.566406 -127.128906 41.765625 -124.328125 41.765625 -121.234375 C 41.765625 -115.953125 42.957031 -111.503906 45.34375 -107.890625 C 47.726562 -104.285156 51.5625 -100.160156 56.84375 -95.515625 L 69.796875 -84.109375 C 77.535156 -77.535156 83.53125 -70.570312 87.78125 -63.21875 C 92.039062 -55.875 94.171875 -47.175781 94.171875 -37.125 C 94.171875 -29.78125 92.460938 -23.109375 89.046875 -17.109375 C 85.628906 -11.117188 80.828125 -6.378906 74.640625 -2.890625 C 68.453125 0.585938 61.296875 2.328125 53.171875 2.328125 Z M 53.171875 2.328125 "/></g></g></g><g fill="#414141" fill-opacity="1"><g transform="translate(87.156215, 232.107829)"><g><path d="M 33.640625 -156.625 L 73.09375 -156.625 L 102.28125 0 L 70.390625 0 L 65.15625 -33.0625 L 42.15625 -33.0625 L 36.734375 0 L 4.0625 0 Z M 61.875 -53.75 L 53.5625 -114.859375 L 45.25 -53.75 Z M 61.875 -53.75 "/></g></g></g><g fill="#414141" fill-opacity="1"><g transform="translate(179.385229, 232.107829)"><g><path d="M 11.609375 -156.625 L 35.96875 -156.625 L 68.0625 -81.21875 L 68.0625 -156.625 L 96.6875 -156.625 L 96.6875 0 L 73.28125 0 L 41.1875 -81.21875 L 41.1875 0 L 11.609375 0 Z M 11.609375 -156.625 "/></g></g></g><g fill="#414141" fill-opacity="1"><g transform="translate(273.547758, 232.107829)"><g><path d="M 11.609375 -156.625 L 51.234375 -156.625 C 64.773438 -156.625 75.347656 -154.945312 82.953125 -151.59375 C 90.554688 -148.238281 95.9375 -142.984375 99.09375 -135.828125 C 102.25 -128.679688 103.828125 -119.113281 103.828125 -107.125 L 103.828125 -50.28125 C 103.828125 -38.15625 102.25 -28.484375 99.09375 -21.265625 C 95.9375 -14.046875 90.585938 -8.695312 83.046875 -5.21875 C 75.503906 -1.738281 65.03125 0 51.625 0 L 11.609375 0 Z M 51.625 -23.984375 C 56.65625 -23.984375 60.363281 -24.722656 62.75 -26.203125 C 65.132812 -27.679688 66.644531 -29.804688 67.28125 -32.578125 C 67.925781 -35.347656 68.25 -39.441406 68.25 -44.859375 L 68.25 -113.109375 C 68.25 -118.140625 67.894531 -121.972656 67.1875 -124.609375 C 66.476562 -127.253906 64.929688 -129.222656 62.546875 -130.515625 C 60.160156 -131.804688 56.457031 -132.453125 51.4375 -132.453125 L 46.21875 -132.453125 L 46.21875 -23.984375 Z M 51.625 -23.984375 "/></g></g></g><g fill="#414141" fill-opacity="1"><g transform="translate(372.544128, 232.107829)"><g><path d="M 31.328125 -64 L 1.546875 -156.625 L 34.21875 -156.625 L 49.109375 -107.125 L 62.453125 -156.625 L 93.78125 -156.625 L 64.578125 -64 L 64.578125 0 L 31.328125 0 Z M 31.328125 -64 "/></g></g></g></g></g></g><g fill="#000000" fill-opacity="1"><g transform="translate(42.065244, 240.420183)"><g><path d="M 7.765625 -29.0625 C 7.484375 -29.640625 7.1875 -30.21875 6.765625 -30.78125 C 7.34375 -30.9375 7.90625 -31.21875 8.34375 -31.359375 Z M 54.234375 -71.359375 C 43.15625 -58.40625 30.78125 -48.34375 17.125 -41.140625 C 17.84375 -43.59375 18.5625 -46.03125 19.28125 -48.34375 C 19.421875 -48.625 19.421875 -48.921875 19.421875 -49.0625 C 19.703125 -49.78125 20 -50.640625 20.140625 -51.359375 C 22.734375 -59.84375 24.890625 -67.328125 26.609375 -73.65625 C 26.90625 -74.8125 26.765625 -75.671875 26.046875 -76.109375 C 25.328125 -76.53125 24.453125 -76.53125 23.453125 -76.390625 C 22.4375 -76.109375 21.71875 -75.53125 21 -74.8125 C 17.703125 -70.78125 14.8125 -67.625 12.65625 -65.171875 C 10.359375 -62.71875 8.484375 -61 7.1875 -59.84375 C 5.75 -58.546875 4.75 -57.828125 4.03125 -57.546875 C 3.3125 -57.109375 2.734375 -56.96875 2.453125 -56.96875 C 2.296875 -56.96875 2.296875 -56.96875 2.15625 -56.96875 C 2.015625 -56.96875 2.015625 -57.109375 1.875 -57.265625 C 1.71875 -57.40625 1.71875 -57.546875 1.71875 -57.828125 C 1.578125 -57.984375 1.578125 -58.40625 1.578125 -58.84375 C 1.71875 -61.28125 2.453125 -63.734375 3.890625 -66.328125 C 5.328125 -68.90625 6.765625 -70.640625 8.203125 -71.359375 C 8.921875 -71.796875 9.78125 -71.21875 10.640625 -69.921875 C 11.359375 -69.0625 12.234375 -68.765625 13.234375 -69.0625 C 14.25 -69.34375 15.109375 -69.921875 15.828125 -70.921875 C 16.546875 -71.9375 16.546875 -72.796875 15.96875 -73.796875 C 14.96875 -75.390625 13.8125 -76.53125 12.65625 -76.96875 C 11.359375 -77.40625 10.359375 -77.40625 9.34375 -77.25 C 8.34375 -77.109375 7.484375 -76.828125 6.90625 -76.53125 C 3.59375 -74.671875 0.859375 -71.9375 -1.15625 -68.1875 C -3.3125 -64.3125 -4.3125 -60.71875 -4.453125 -57.40625 C -4.3125 -53.234375 -2.59375 -51.21875 0.859375 -51.21875 C 5.03125 -51.21875 10.796875 -55.09375 17.84375 -63.015625 C 16.546875 -58.703125 15.109375 -54.09375 13.671875 -49.203125 C 12.515625 -45.171875 11.359375 -41.4375 10.359375 -37.84375 C 7.484375 -36.546875 4.609375 -35.53125 1.71875 -34.671875 C 0.578125 -34.234375 -0.28125 -33.515625 -0.71875 -32.515625 C -1.15625 -31.5 -1.15625 -30.5 -0.578125 -29.78125 C 1.875 -26.765625 3.734375 -22.875 4.75 -18.421875 C -0.28125 -0.4375 -1.875 9.640625 0.28125 11.9375 C 1.15625 13.09375 2.453125 13.53125 4.171875 13.09375 C 5.75 12.796875 7.34375 11.65625 8.78125 9.640625 C 10.5 6.765625 11.65625 2.59375 12.078125 -2.875 C 12.515625 -8.203125 12.078125 -13.8125 10.9375 -19.5625 C 12.234375 -24.453125 13.671875 -29.34375 15.109375 -34.234375 C 31.078125 -42.015625 45.609375 -53.375 58.40625 -68.34375 C 59.421875 -69.484375 59.703125 -70.5 59.265625 -71.359375 C 58.84375 -72.21875 58.265625 -72.65625 57.265625 -72.796875 C 56.25 -72.9375 55.25 -72.359375 54.234375 -71.359375 Z M 54.234375 -71.359375 "/></g></g></g><g fill="#000000" fill-opacity="1"><g transform="translate(104.266239, 240.420183)"><g><path d="M 56.6875 -71.078125 C 46.75 -62 38.703125 -57.6875 32.65625 -58.265625 C 29.34375 -58.703125 27.625 -60.28125 27.484375 -62.875 C 27.328125 -65.453125 27.765625 -68.484375 28.78125 -71.796875 C 28.921875 -72.515625 29.0625 -73.078125 29.203125 -73.796875 C 29.5 -75.09375 29.34375 -75.96875 28.625 -76.390625 C 27.90625 -76.828125 27.046875 -76.828125 26.046875 -76.6875 C 25.03125 -76.390625 24.3125 -75.671875 23.59375 -74.515625 C 17.703125 -63.59375 12.375 -58.125 7.34375 -58.125 C 5.75 -58.125 4.75 -58.984375 4.453125 -60.71875 C 4.171875 -62.4375 4.3125 -64.453125 4.890625 -66.75 C 5.46875 -69.0625 6.1875 -71.21875 6.90625 -73.078125 C 7.34375 -74.375 7.34375 -75.25 6.625 -75.8125 C 5.90625 -76.390625 4.890625 -76.53125 3.890625 -76.25 C 2.875 -75.96875 2.015625 -75.25 1.4375 -73.953125 C -0.140625 -70.34375 -1 -67.046875 -1.4375 -63.734375 C -1.875 -60.421875 -1.4375 -57.828125 -0.4375 -55.671875 C 0.578125 -53.515625 2.734375 -52.375 5.90625 -52.375 C 7.1875 -52.375 9.34375 -52.9375 12.078125 -53.953125 C 14.8125 -54.953125 17.984375 -57.546875 21.4375 -61.4375 C 21.578125 -58.265625 22.734375 -55.96875 24.59375 -54.53125 C 26.46875 -53.09375 29.0625 -52.375 32.375 -52.375 C 40 -52.375 49.34375 -57.40625 60.140625 -67.328125 C 61.140625 -68.34375 61.578125 -69.34375 61.4375 -70.34375 C 61.28125 -71.21875 60.71875 -71.796875 59.84375 -72.078125 C 58.84375 -72.359375 57.828125 -72.078125 56.6875 -71.078125 Z M 56.6875 -71.078125 "/></g></g></g><g fill="#000000" fill-opacity="1"><g transform="translate(168.913, 240.420183)"><g><path d="M 5.75 -80.5625 L 5.46875 -80.5625 C 4.75 -80.703125 4.171875 -81 3.890625 -81.71875 C 3.453125 -82.296875 3.453125 -83.015625 3.734375 -83.734375 C 3.890625 -84.3125 4.03125 -84.875 4.171875 -85.3125 L 4.3125 -85.3125 C 4.609375 -86.46875 5.03125 -87.765625 5.75 -89.046875 C 6.1875 -89.765625 6.765625 -90.5 7.484375 -90.921875 C 8.203125 -91.359375 8.921875 -91.5 9.640625 -91.359375 C 10.359375 -91.21875 10.9375 -90.78125 11.21875 -90.203125 C 11.515625 -89.484375 11.515625 -88.765625 11.078125 -88.046875 L 9.921875 -84.875 L 9.34375 -83.15625 C 9.0625 -82.4375 8.625 -81.71875 7.90625 -81.28125 C 7.1875 -80.859375 6.46875 -80.5625 5.75 -80.5625 Z M 33.953125 -71.078125 C 24.03125 -62 15.96875 -57.6875 9.921875 -58.265625 C 6.90625 -58.703125 5.171875 -60.140625 4.890625 -62.875 C 4.609375 -65.609375 5.03125 -68.90625 6.328125 -72.9375 C 6.625 -74.515625 6.328125 -75.53125 5.609375 -75.96875 C 4.890625 -76.390625 3.890625 -76.390625 2.875 -75.96875 C 1.71875 -75.53125 0.859375 -74.515625 0.4375 -72.9375 C -0.71875 -69.0625 -1.296875 -65.453125 -1.296875 -62.4375 C -1.296875 -59.421875 -0.4375 -56.96875 1.15625 -55.09375 C 2.734375 -53.234375 5.609375 -52.375 9.640625 -52.375 C 17.265625 -52.375 26.609375 -57.40625 37.40625 -67.328125 C 38.40625 -68.34375 38.84375 -69.34375 38.703125 -70.34375 C 38.5625 -71.21875 37.984375 -71.796875 37.125 -72.078125 C 36.109375 -72.359375 35.109375 -72.078125 33.953125 -71.078125 Z M 33.953125 -71.078125 "/></g></g></g><g fill="#000000" fill-opacity="1"><g transform="translate(211.116192, 240.420183)"><g><path d="M 63.15625 -70.203125 C 59.84375 -66.328125 56.6875 -63.453125 53.953125 -61.71875 C 51.21875 -59.84375 48.203125 -58.84375 44.890625 -58.40625 C 41.578125 -57.984375 37.546875 -57.6875 32.515625 -57.6875 L 8.484375 -57.6875 C 8.34375 -57.546875 8.203125 -57.546875 8.0625 -57.546875 C 10.796875 -58.84375 13.375 -60 16.109375 -61.140625 C 21.4375 -63.453125 27.625 -66.171875 34.8125 -69.484375 C 35.53125 -69.921875 36.109375 -70.34375 36.546875 -70.921875 C 36.96875 -71.5 37.265625 -72.078125 37.265625 -72.796875 C 37.40625 -73.515625 37.265625 -74.09375 36.828125 -74.515625 C 36.40625 -74.953125 35.53125 -75.25 34.234375 -75.671875 C 32.796875 -75.96875 30.640625 -76.25 27.765625 -76.53125 C 22.4375 -76.96875 16.96875 -76.96875 11.65625 -76.25 C 6.1875 -75.53125 2.296875 -73.65625 -0.140625 -70.5 C -0.859375 -69.203125 -0.859375 -68.34375 -0.28125 -67.625 C 0.140625 -66.890625 1 -66.46875 2.015625 -66.609375 C 3.015625 -66.609375 3.890625 -67.1875 4.75 -68.34375 C 5.75 -69.625 8.484375 -70.34375 12.65625 -70.78125 C 16.828125 -71.078125 20.859375 -71.078125 25.03125 -70.78125 C 20 -68.625 15.6875 -66.609375 12.078125 -65.03125 C 5.609375 -62.296875 1.15625 -60.28125 -1.296875 -58.984375 C -3.59375 -57.6875 -4.75 -56.25 -4.609375 -54.671875 C -4.609375 -53.09375 -3.890625 -52.21875 -2.296875 -52.21875 C 0.71875 -52.21875 4.03125 -52.21875 7.625 -52.375 C 10.359375 -52.375 13.8125 -52.375 17.703125 -52.21875 L 31.359375 -52.21875 C 36.6875 -52.21875 41.296875 -52.515625 45.171875 -53.09375 C 49.0625 -53.515625 52.65625 -54.8125 56.109375 -56.96875 C 59.5625 -59.125 63.296875 -62.578125 67.328125 -67.328125 C 68.34375 -68.484375 68.625 -69.484375 68.1875 -70.34375 C 67.765625 -71.078125 67.1875 -71.640625 66.171875 -71.796875 C 65.171875 -71.9375 64.171875 -71.359375 63.15625 -70.203125 Z M 63.15625 -70.203125 "/></g></g></g><g fill="#000000" fill-opacity="1"><g transform="translate(282.390727, 240.420183)"><g/></g></g><g fill="#000000" fill-opacity="1"><g transform="translate(304.892732, 240.420183)"><g><path d="M 49.484375 -71.078125 C 39.421875 -62 31.359375 -57.6875 25.328125 -58.265625 C 21.875 -58.703125 20.140625 -60.421875 20.140625 -63.296875 C 20 -66.03125 20.578125 -69.34375 21.71875 -72.9375 L 22.015625 -73.796875 C 22.15625 -75.09375 22.015625 -75.96875 21.296875 -76.390625 C 20.578125 -76.828125 19.703125 -76.828125 18.703125 -76.53125 C 17.703125 -76.25 16.96875 -75.53125 16.40625 -74.375 C 13.953125 -69.921875 11.796875 -66.46875 10.078125 -64.171875 C 8.34375 -61.71875 7.046875 -60.140625 6.046875 -59.421875 C 5.03125 -58.546875 4.3125 -58.125 4.03125 -58.125 C 3.890625 -58.125 3.59375 -58.125 3.453125 -58.265625 C 3.171875 -58.265625 2.875 -58.40625 2.734375 -58.703125 C 2.59375 -58.984375 2.453125 -59.421875 2.453125 -60.140625 C 2.453125 -61.578125 2.875 -63.15625 3.734375 -65.03125 C 4.453125 -66.75 5.328125 -68.1875 6.328125 -69.34375 C 7.34375 -70.5 8.0625 -70.78125 8.78125 -70.203125 C 9.5 -69.484375 10.5 -69.34375 11.515625 -69.78125 C 12.515625 -70.203125 13.375 -70.921875 13.953125 -71.9375 C 14.390625 -72.9375 14.390625 -73.796875 13.671875 -74.671875 C 11.515625 -76.828125 9.0625 -77.109375 6.328125 -75.671875 C 3.59375 -74.234375 1.296875 -71.9375 -0.578125 -68.625 C -2.59375 -65.3125 -3.59375 -61.859375 -3.59375 -58.40625 C -3.3125 -54.375 -1.296875 -52.375 2.453125 -52.375 C 6.046875 -52.375 9.921875 -55.25 14.09375 -60.859375 C 14.53125 -57.828125 15.6875 -55.671875 17.546875 -54.375 C 19.421875 -53.09375 21.875 -52.375 25.03125 -52.375 C 32.65625 -52.375 42.015625 -57.40625 52.9375 -67.328125 C 53.953125 -68.34375 54.375 -69.34375 54.234375 -70.34375 C 53.953125 -71.21875 53.375 -71.796875 52.515625 -72.078125 C 51.5 -72.359375 50.5 -72.078125 49.484375 -71.078125 Z M 49.484375 -71.078125 "/></g></g></g><g fill="#000000" fill-opacity="1"><g transform="translate(362.633785, 240.420183)"><g><path d="M 30.0625 -70.640625 C 32.21875 -70.640625 32.796875 -69.484375 31.65625 -67.046875 C 30.359375 -64.59375 28.046875 -62.296875 24.453125 -59.84375 C 20.859375 -57.40625 16.546875 -55.828125 11.515625 -55.25 C 14.53125 -60 17.703125 -63.734375 20.859375 -66.46875 C 23.875 -69.203125 27.046875 -70.640625 30.0625 -70.640625 Z M 64.734375 -71.078125 C 56.828125 -63.734375 49.0625 -58.40625 41.140625 -55.390625 C 33.234375 -52.21875 25.890625 -50.921875 18.84375 -51.359375 C 25.171875 -53.65625 30.0625 -56.828125 33.375 -60.71875 C 36.6875 -64.59375 38.40625 -68.1875 38.265625 -71.5 C 38.125 -74.8125 35.828125 -76.390625 31.65625 -76.390625 C 27.328125 -76.390625 23.15625 -74.8125 19.140625 -71.5 C 15.109375 -68.1875 11.21875 -64.015625 7.625 -58.703125 C 4.03125 -53.375 0.578125 -47.46875 -2.453125 -41.296875 C 1.15625 -54.375 4.171875 -65.171875 6.625 -73.375 C 6.90625 -74.671875 6.625 -75.53125 5.90625 -75.96875 C 5.171875 -76.390625 4.171875 -76.53125 3.171875 -76.109375 C 2.15625 -75.671875 1.296875 -74.8125 0.859375 -73.515625 C -1.875 -64.453125 -5.171875 -52.65625 -8.921875 -38.265625 C -12.796875 -23.734375 -15.96875 -11.359375 -18.703125 -0.859375 C -20.140625 4.609375 -21.15625 8.34375 -21.578125 10.359375 C -21.875 11.65625 -21.578125 12.375 -20.71875 12.796875 C -20 13.234375 -18.984375 13.234375 -17.984375 12.796875 C -16.96875 12.375 -16.25 11.65625 -15.828125 10.359375 C -13.671875 2.453125 -10.640625 -6.90625 -6.625 -17.703125 C -2.734375 -28.34375 1.875 -38.265625 6.90625 -47.625 C 9.203125 -46.46875 13.375 -45.75 19.421875 -45.46875 C 25.46875 -45.03125 32.65625 -46.46875 41.140625 -49.484375 C 49.640625 -52.515625 58.703125 -58.546875 68.34375 -67.46875 C 69.34375 -68.484375 69.78125 -69.484375 69.625 -70.5 C 69.34375 -71.359375 68.765625 -71.9375 67.765625 -72.21875 C 66.75 -72.359375 65.75 -72.078125 64.734375 -71.078125 Z M 64.734375 -71.078125 "/></g></g></g><g fill="#000000" fill-opacity="1"><g transform="translate(435.337213, 240.420183)"><g><path d="M 30.0625 -70.640625 C 32.21875 -70.640625 32.796875 -69.484375 31.65625 -67.046875 C 30.359375 -64.59375 28.046875 -62.296875 24.453125 -59.84375 C 20.859375 -57.40625 16.546875 -55.828125 11.515625 -55.25 C 14.53125 -60 17.703125 -63.734375 20.859375 -66.46875 C 23.875 -69.203125 27.046875 -70.640625 30.0625 -70.640625 Z M 64.734375 -71.078125 C 56.828125 -63.734375 49.0625 -58.40625 41.140625 -55.390625 C 33.234375 -52.21875 25.890625 -50.921875 18.84375 -51.359375 C 25.171875 -53.65625 30.0625 -56.828125 33.375 -60.71875 C 36.6875 -64.59375 38.40625 -68.1875 38.265625 -71.5 C 38.125 -74.8125 35.828125 -76.390625 31.65625 -76.390625 C 27.328125 -76.390625 23.15625 -74.8125 19.140625 -71.5 C 15.109375 -68.1875 11.21875 -64.015625 7.625 -58.703125 C 4.03125 -53.375 0.578125 -47.46875 -2.453125 -41.296875 C 1.15625 -54.375 4.171875 -65.171875 6.625 -73.375 C 6.90625 -74.671875 6.625 -75.53125 5.90625 -75.96875 C 5.171875 -76.390625 4.171875 -76.53125 3.171875 -76.109375 C 2.15625 -75.671875 1.296875 -74.8125 0.859375 -73.515625 C -1.875 -64.453125 -5.171875 -52.65625 -8.921875 -38.265625 C -12.796875 -23.734375 -15.96875 -11.359375 -18.703125 -0.859375 C -20.140625 4.609375 -21.15625 8.34375 -21.578125 10.359375 C -21.875 11.65625 -21.578125 12.375 -20.71875 12.796875 C -20 13.234375 -18.984375 13.234375 -17.984375 12.796875 C -16.96875 12.375 -16.25 11.65625 -15.828125 10.359375 C -13.671875 2.453125 -10.640625 -6.90625 -6.625 -17.703125 C -2.734375 -28.34375 1.875 -38.265625 6.90625 -47.625 C 9.203125 -46.46875 13.375 -45.75 19.421875 -45.46875 C 25.46875 -45.03125 32.65625 -46.46875 41.140625 -49.484375 C 49.640625 -52.515625 58.703125 -58.546875 68.34375 -67.46875 C 69.34375 -68.484375 69.78125 -69.484375 69.625 -70.5 C 69.34375 -71.359375 68.765625 -71.9375 67.765625 -72.21875 C 66.75 -72.359375 65.75 -72.078125 64.734375 -71.078125 Z M 64.734375 -71.078125 "/></g></g></g><g fill="#000000" fill-opacity="1"><g transform="translate(508.050504, 240.420183)"><g/></g></g></svg>